<?xml version="1.0" standalone="no"?>
<!DOCTYPE svg PUBLIC "-//W3C//DTD SVG 20010904//EN"
 "http://www.w3.org/TR/2001/REC-SVG-20010904/DTD/svg10.dtd">
<svg version="1.0" xmlns="http://www.w3.org/2000/svg"
 width="600.000000pt" height="396.000000pt" viewBox="0 0 600.000000 396.000000"
 preserveAspectRatio="xMidYMid meet">
<metadata>
Created by potrace 1.16, written by Peter Selinger 2001-2019
</metadata>
<g transform="translate(0.000000,396.000000) scale(0.100000,-0.100000)"
fill="#000000" stroke="none">
<path d="M2728 3671 c20 -12 -9 -21 -73 -21 -35 0 -57 -5 -62 -14 -5 -7 -32
-16 -63 -18 -30 -3 -56 -11 -58 -17 -2 -6 -12 -11 -22 -11 -10 0 -25 -6 -32
-14 -8 -7 -29 -17 -46 -21 -18 -3 -32 -10 -32 -15 0 -5 -13 -11 -30 -15 -16
-4 -30 -10 -30 -15 0 -5 -13 -11 -30 -15 -16 -4 -30 -13 -30 -21 0 -9 -11 -14
-30 -14 -20 0 -30 -5 -30 -15 0 -8 -9 -15 -20 -15 -11 0 -20 -6 -20 -14 0 -8
-11 -17 -25 -20 -14 -4 -23 -11 -20 -16 6 -9 -8 -14 -28 -11 -4 1 -10 -6 -13
-14 -4 -8 -12 -15 -20 -15 -8 0 -14 -9 -14 -20 0 -11 -7 -20 -15 -20 -8 0 -15
-4 -15 -10 0 -5 -4 -10 -9 -10 -14 0 -61 -45 -61 -59 0 -6 -7 -11 -15 -11 -8
0 -15 -7 -15 -15 0 -8 -7 -15 -15 -15 -8 0 -15 -7 -15 -15 0 -8 -7 -15 -15
-15 -8 0 -15 -9 -15 -19 0 -10 -7 -21 -15 -25 -8 -3 -15 -15 -15 -26 0 -11 -7
-20 -15 -20 -8 0 -15 -9 -15 -20 0 -11 -6 -20 -14 -20 -9 0 -16 -12 -18 -27
-2 -16 -8 -27 -15 -26 -7 2 -13 -6 -13 -17 0 -11 -7 -20 -15 -20 -10 0 -15
-10 -15 -29 0 -16 -6 -31 -14 -34 -7 -3 -17 -18 -21 -34 -3 -15 -11 -31 -17
-34 -5 -3 -12 -25 -15 -48 -4 -25 -11 -41 -19 -41 -10 0 -14 -14 -14 -45 0
-33 -4 -45 -15 -45 -12 0 -15 -13 -15 -55 0 -40 -4 -57 -15 -61 -12 -5 -15
-27 -15 -115 0 -90 -3 -109 -15 -109 -11 0 -15 -12 -15 -50 0 -38 4 -50 15
-50 10 0 15 -10 15 -30 0 -29 2 -30 43 -30 66 0 73 14 80 170 4 73 11 136 15
139 5 3 13 33 17 66 4 33 11 63 16 66 6 3 12 23 16 45 3 21 12 43 20 47 7 5
13 25 13 47 0 29 4 40 15 40 10 0 15 11 15 35 0 24 5 35 15 35 10 0 15 10 15
30 0 19 5 30 14 30 8 0 17 11 20 25 4 16 11 23 18 19 6 -4 8 -3 4 4 -3 6 -2
13 4 17 6 4 8 11 5 16 -4 5 1 9 9 9 9 0 16 7 16 15 0 9 7 18 15 21 8 3 17 15
21 26 3 12 19 34 35 49 16 16 29 33 29 39 0 5 7 10 15 10 8 0 15 7 15 15 0 8
7 15 15 15 8 0 15 7 15 15 0 8 7 15 15 15 8 0 15 6 15 14 0 7 9 16 21 19 12 3
18 10 14 16 -3 7 2 11 14 11 12 0 21 6 21 14 0 8 14 17 30 21 17 4 30 13 30
21 0 8 7 14 15 14 8 0 15 4 15 9 0 5 14 12 30 16 17 4 30 13 30 21 0 9 11 14
30 14 18 0 29 5 28 12 -2 7 7 14 20 16 13 2 26 10 29 18 3 8 19 14 39 14 24 0
34 5 34 15 0 10 11 15 35 15 18 0 38 6 42 14 4 7 30 16 57 18 27 3 51 10 55
15 3 6 40 13 81 17 41 3 77 11 78 16 5 13 349 13 354 1 2 -5 36 -12 77 -16 42
-4 80 -13 88 -21 8 -8 30 -14 49 -14 20 0 42 -7 50 -15 9 -8 29 -15 45 -15 19
0 29 -5 29 -15 0 -10 11 -15 35 -15 24 0 35 -5 35 -15 0 -10 10 -15 30 -15 20
0 30 -5 30 -15 0 -10 10 -15 30 -15 19 0 30 -5 30 -14 0 -8 14 -17 30 -21 17
-4 30 -11 30 -16 0 -5 6 -9 14 -9 7 0 16 -9 19 -21 3 -12 10 -18 16 -14 6 3
11 -1 11 -9 0 -9 6 -16 13 -16 7 0 20 -9 30 -20 9 -11 24 -20 32 -20 8 0 15
-7 15 -15 0 -8 9 -15 20 -15 13 0 18 -5 14 -15 -4 -9 0 -15 9 -15 8 0 17 -7
21 -15 3 -8 12 -15 21 -15 10 0 15 -10 15 -30 0 -20 5 -30 15 -30 8 0 15 -7
15 -15 0 -8 7 -15 15 -15 8 0 15 -7 15 -15 0 -9 7 -18 15 -21 8 -4 15 -12 15
-20 0 -8 6 -14 14 -14 8 0 17 -13 21 -30 4 -16 12 -30 20 -30 7 0 13 -6 12
-12 -1 -34 4 -48 18 -48 8 0 15 -7 15 -16 0 -8 7 -22 15 -30 8 -9 15 -29 15
-45 0 -19 5 -29 15 -29 10 0 15 -11 15 -35 0 -24 5 -35 15 -35 11 0 15 -12 15
-45 0 -27 5 -47 14 -52 9 -5 15 -33 18 -77 2 -42 9 -71 16 -74 8 -2 12 -39 12
-120 0 -164 -1 -162 71 -162 l59 0 0 175 c0 143 -3 175 -14 175 -10 0 -15 19
-18 71 -2 38 -8 73 -14 77 -6 4 -14 25 -17 47 -4 22 -11 41 -16 43 -6 2 -13
19 -17 38 -3 19 -10 34 -15 34 -5 0 -12 18 -15 39 -4 22 -13 42 -20 45 -8 3
-14 12 -14 21 0 8 -4 15 -9 15 -5 0 -12 14 -16 30 -4 17 -13 30 -21 30 -9 0
-14 11 -14 30 0 20 -5 30 -15 30 -8 0 -15 7 -15 15 0 9 -7 18 -15 21 -8 4 -15
12 -15 20 0 8 -5 14 -11 14 -5 0 -8 4 -5 9 3 5 -1 11 -9 15 -8 3 -15 12 -15
21 0 8 -7 15 -15 15 -8 0 -15 7 -15 15 0 8 -7 15 -15 15 -8 0 -15 7 -15 15 0
8 -7 15 -15 15 -8 0 -15 5 -15 10 0 6 -9 19 -20 30 -11 11 -24 20 -30 20 -5 0
-10 7 -10 15 0 8 -7 15 -15 15 -8 0 -15 6 -15 14 0 7 -9 16 -21 19 -12 3 -18
10 -15 16 3 5 -7 12 -24 16 -16 4 -30 13 -30 21 0 8 -9 14 -20 14 -11 0 -20 7
-20 15 0 8 -9 15 -20 15 -11 0 -20 7 -20 15 0 9 -9 15 -25 15 -16 0 -25 6 -25
15 0 10 -10 15 -30 15 -20 0 -30 5 -30 15 0 8 -9 15 -19 15 -11 0 -26 6 -33
13 -7 8 -27 17 -43 21 -16 4 -33 12 -36 18 -3 5 -25 12 -48 15 -25 4 -41 11
-41 19 0 10 -14 14 -50 14 -35 0 -49 4 -48 13 2 8 -16 13 -59 15 -47 2 -63 7
-63 17 0 13 -40 15 -267 15 -150 0 -262 -4 -255 -9z"/>
<path d="M3385 3276 c-5 -6 -10 -35 -10 -65 0 -34 -5 -56 -13 -59 -6 -2 -12
-9 -12 -16 0 -6 -9 -19 -20 -29 -11 -9 -20 -24 -20 -32 0 -8 -7 -15 -15 -15
-8 0 -15 -7 -15 -15 0 -14 -29 -21 -55 -15 -5 1 -16 3 -22 3 -8 0 -13 14 -13
36 0 60 -10 81 -37 81 -22 0 -24 -3 -22 -45 2 -29 7 -45 16 -45 7 0 13 -7 13
-15 0 -22 36 -59 49 -50 7 3 11 -2 11 -14 0 -13 6 -18 18 -16 9 2 23 4 30 4 6
1 12 8 12 16 0 8 5 15 10 15 6 0 24 13 39 29 16 16 32 27 35 24 3 -4 6 1 6 10
0 9 7 20 16 25 10 6 17 28 20 68 6 70 -6 138 -21 120z"/>
<path d="M3660 3165 c0 -8 -7 -15 -15 -15 -8 0 -15 -3 -15 -7 -2 -41 -14 -119
-20 -123 -4 -3 -11 -28 -15 -57 -4 -29 -13 -57 -21 -64 -9 -7 -14 -31 -14 -68
0 -46 4 -58 21 -69 32 -20 41 -3 43 83 1 53 6 79 16 85 8 5 15 32 18 69 2 34
8 61 12 61 10 0 21 85 14 105 -8 19 -24 20 -24 0z"/>
<path d="M3891 2976 c-12 -12 -21 -28 -21 -34 0 -7 -4 -12 -10 -12 -5 0 -10
-7 -10 -15 0 -8 -5 -15 -11 -15 -6 0 -9 -7 -5 -15 3 -9 0 -15 -9 -15 -8 0 -15
-7 -15 -15 0 -8 -7 -15 -15 -15 -8 0 -15 -5 -15 -11 0 -5 -4 -7 -10 -4 -5 3
-10 1 -10 -4 0 -6 -15 -11 -32 -11 -51 0 -64 -13 -42 -39 17 -20 41 -30 31
-13 -3 4 16 8 41 10 39 2 54 10 84 40 21 20 37 43 38 50 0 6 4 12 9 12 5 0 12
13 16 29 3 16 12 31 18 34 17 7 19 54 3 60 -8 3 -23 -5 -35 -17z"/>
<path d="M2907 2917 c-3 -7 -22 -14 -43 -15 -52 -3 -76 -11 -69 -23 4 -5 101
-9 225 -9 187 0 219 2 224 15 3 9 1 15 -7 14 -6 -1 -36 -1 -64 0 -40 1 -53 5
-53 16 0 12 -18 15 -104 15 -75 0 -105 -4 -109 -13z"/>
<path d="M2694 2856 c-3 -9 -14 -16 -24 -16 -10 0 -25 -6 -32 -14 -8 -7 -25
-17 -38 -21 -26 -8 -51 -35 -44 -47 2 -3 -9 -9 -26 -13 -16 -4 -30 -13 -30
-21 0 -8 -7 -14 -15 -14 -8 0 -15 -7 -15 -15 0 -8 -7 -15 -15 -15 -8 0 -15 -7
-15 -15 0 -8 -7 -15 -15 -15 -8 0 -15 -7 -15 -15 0 -8 -6 -15 -14 -15 -8 0
-17 -13 -21 -30 -4 -16 -10 -30 -15 -30 -4 0 -11 -12 -15 -27 -3 -15 -12 -31
-18 -35 -12 -7 -13 -11 -16 -45 -1 -14 -3 -15 -10 -5 -12 19 -21 -19 -21 -86
0 -37 -4 -54 -15 -58 -12 -5 -15 -25 -15 -95 l0 -89 -236 0 c-219 0 -235 -1
-232 -17 2 -10 9 -17 16 -16 6 2 9 -4 6 -12 -5 -13 24 -15 220 -15 194 0 226
2 226 15 0 8 7 15 15 15 12 0 15 19 15 110 0 91 3 110 15 110 10 0 15 10 15
34 0 19 7 41 15 50 8 8 15 25 15 38 0 13 9 31 20 41 11 9 20 26 20 37 0 12 4
19 9 16 5 -3 12 6 15 19 4 14 11 23 15 20 5 -3 12 8 16 25 4 16 13 30 21 30 8
0 14 7 14 15 0 8 7 15 15 15 8 0 15 7 15 15 0 8 7 15 15 15 8 0 15 6 15 14 0
8 11 17 25 20 14 4 23 11 20 15 -3 5 8 12 25 16 17 4 28 10 25 15 -4 7 22 18
42 18 3 0 10 7 15 16 5 9 22 16 38 16 20 0 30 5 30 15 0 10 10 15 31 15 53 0
28 25 -29 28 -40 2 -54 -1 -58 -12z"/>
<path d="M4090 2755 c0 -8 -7 -15 -15 -15 -8 0 -15 -7 -15 -15 0 -8 -7 -15
-15 -15 -8 0 -15 -7 -15 -15 0 -8 -7 -15 -15 -15 -9 0 -15 -9 -15 -24 0 -16
-7 -27 -20 -31 -11 -3 -29 -19 -40 -35 -11 -16 -29 -32 -40 -35 -11 -4 -23
-17 -26 -30 -3 -13 -12 -26 -20 -29 -8 -3 -14 -12 -14 -21 0 -8 -4 -15 -10
-15 -19 0 -50 -40 -50 -64 0 -20 6 -24 36 -28 30 -4 35 -2 31 14 -3 10 -1 21
4 24 5 3 7 10 4 15 -4 5 1 9 9 9 9 0 16 7 16 15 0 8 7 15 15 15 8 0 15 4 15
10 0 12 73 85 83 82 4 -1 7 7 7 18 0 11 7 20 15 20 8 0 15 7 15 15 0 8 7 15
15 15 8 0 15 7 15 15 0 8 7 15 15 15 8 0 15 7 15 15 0 8 7 15 15 15 11 0 15
12 15 45 0 33 -4 45 -15 45 -8 0 -15 -7 -15 -15z"/>
<path d="M4186 2445 c-3 -8 -15 -15 -26 -15 -11 0 -20 -7 -20 -15 0 -9 -9 -15
-25 -15 -16 0 -25 -6 -25 -15 0 -9 -9 -15 -25 -15 -14 0 -28 -7 -31 -15 -4 -8
-12 -15 -20 -15 -8 0 -14 7 -14 15 0 12 -14 15 -70 15 -58 0 -68 -3 -64 -15 6
-15 26 -19 72 -15 14 1 22 -4 22 -14 0 -14 12 -20 33 -17 4 0 7 -6 7 -14 0
-11 9 -15 30 -13 17 1 30 8 30 16 0 7 6 12 13 11 30 -4 47 2 47 16 0 8 7 15
16 15 9 0 14 6 11 13 -3 7 3 13 13 14 25 2 60 34 60 55 0 12 5 15 18 11 16 -6
16 -6 0 10 -21 21 -44 22 -52 2z"/>
<path d="M3720 2246 c0 -19 6 -36 13 -39 7 -3 2 -12 -15 -26 -16 -13 -28 -31
-28 -42 0 -19 -15 -19 -675 -19 -593 0 -675 -2 -675 -15 0 -8 6 -15 14 -15 8
0 16 -7 20 -15 5 -13 87 -15 661 -15 576 0 655 2 655 15 0 8 7 15 15 15 8 0
15 6 15 14 0 8 7 16 15 20 8 3 15 16 15 30 0 28 15 43 23 24 3 -7 6 -3 6 10 1
13 -5 22 -14 22 -10 0 -15 11 -15 35 0 24 -5 35 -15 35 -10 0 -15 -10 -15 -34z"/>
<path d="M4250 2155 l0 -35 -250 0 c-216 0 -250 -2 -250 -15 0 -8 9 -15 20
-15 11 0 20 -7 20 -15 0 -13 34 -15 244 -15 l243 0 6 39 c6 51 -2 91 -19 91
-9 0 -14 -12 -14 -35z"/>
<path d="M478 1993 c-16 -2 -28 -8 -28 -13 0 -4 -15 -11 -34 -14 -19 -4 -37
-13 -40 -21 -3 -8 -12 -15 -21 -15 -8 0 -15 -7 -15 -15 0 -8 -4 -15 -10 -15
-13 0 -50 -37 -50 -50 0 -5 -7 -10 -15 -10 -8 0 -15 -7 -15 -15 0 -8 -7 -15
-15 -15 -10 0 -15 -10 -15 -27 0 -16 -7 -37 -15 -47 -23 -30 -22 -1161 0
-1170 9 -3 15 -18 15 -36 0 -20 5 -30 15 -30 8 0 15 -6 15 -14 0 -8 7 -16 15
-20 8 -3 15 -12 15 -21 0 -8 7 -15 15 -15 8 0 15 -7 15 -15 0 -8 6 -15 14 -15
8 0 16 -7 20 -15 3 -8 17 -15 31 -15 16 0 25 -6 25 -15 0 -10 10 -15 30 -15
18 0 33 -6 36 -15 5 -13 295 -15 2519 -15 2137 0 2514 2 2524 14 7 8 27 17 47
20 19 4 32 11 29 16 -3 5 4 12 16 15 28 9 59 36 59 52 0 7 7 13 15 13 8 0 15
7 15 15 0 8 7 15 15 15 10 0 15 10 15 30 0 20 5 30 15 30 10 0 15 10 15 30 0
20 5 30 15 30 13 0 15 69 15 565 0 496 -2 565 -15 565 -11 0 -15 12 -15 45 0
33 -4 45 -15 45 -8 0 -15 7 -15 15 0 8 -7 15 -15 15 -8 0 -15 4 -15 10 0 13
-66 80 -79 80 -5 0 -14 6 -18 13 -4 6 -32 22 -62 34 l-55 23 -2485 -2 c-1367
0 -2498 -3 -2513 -5z m4949 -135 c-1 -9 15 -15 48 -18 33 -3 49 -9 48 -17 -2
-7 6 -13 17 -13 11 0 20 -7 20 -15 0 -9 7 -18 15 -21 8 -4 15 -12 15 -20 0 -8
7 -14 15 -14 8 0 14 -3 13 -7 -3 -19 16 -113 23 -113 5 0 9 -210 9 -470 0
-369 -3 -470 -12 -470 -9 0 -8 -4 2 -10 8 -5 10 -10 4 -10 -7 0 -15 -16 -18
-35 -4 -19 -11 -35 -16 -35 -6 0 -10 -3 -9 -7 3 -19 -15 -53 -27 -53 -8 0 -14
-7 -14 -15 0 -8 -8 -15 -17 -15 -10 0 -25 -5 -33 -11 -13 -9 -12 -10 3 -5 11
3 16 2 12 -4 -3 -6 -23 -10 -44 -10 -20 0 -46 -7 -57 -15 -17 -12 -327 -14
-2441 -15 -1609 0 -2423 3 -2423 10 0 5 -3 9 -7 8 -5 0 -32 2 -60 7 -34 5 -53
12 -53 21 0 8 -9 14 -21 14 -11 0 -17 5 -14 10 3 6 -1 13 -9 16 -9 3 -16 12
-16 20 0 8 -6 14 -14 14 -8 0 -18 14 -21 32 -4 17 -14 38 -21 46 -12 11 -14
102 -14 513 0 435 2 500 15 505 8 4 15 18 15 34 0 16 7 35 15 44 8 8 15 18 15
22 0 10 49 54 61 54 5 0 9 7 9 15 0 10 10 15 30 15 20 0 30 5 30 15 0 13 281
15 2465 15 1967 0 2464 -3 2462 -12z"/>
<path d="M810 1605 c0 -11 -12 -15 -45 -15 -33 0 -45 -4 -45 -15 0 -8 -7 -15
-15 -15 -8 0 -15 -7 -15 -15 0 -8 -7 -15 -15 -15 -8 0 -15 -6 -15 -13 0 -7 -9
-20 -20 -30 -11 -9 -20 -23 -20 -31 0 -8 -7 -16 -15 -20 -8 -3 -15 -16 -15
-30 0 -13 -7 -27 -16 -30 -13 -5 -15 -35 -12 -233 2 -170 6 -227 16 -231 6 -2
12 -12 12 -23 0 -10 6 -19 14 -19 8 0 17 -14 21 -30 4 -17 13 -30 21 -30 8 0
14 -7 14 -15 0 -8 7 -15 15 -15 8 0 15 -7 15 -15 0 -8 7 -15 15 -15 8 0 15 -6
15 -14 0 -8 16 -16 42 -19 24 -3 44 -11 46 -16 2 -7 58 -11 159 -11 124 0 157
3 169 15 9 8 29 15 45 15 17 0 32 6 35 15 4 8 12 15 20 15 8 0 14 9 14 20 0
13 5 18 15 14 11 -5 15 1 15 25 0 21 5 31 15 31 8 0 15 7 15 15 0 8 6 15 14
15 9 0 17 16 21 43 4 23 12 48 18 55 8 11 7 16 -6 23 -9 6 -17 17 -17 24 0 12
-21 15 -110 15 -87 0 -110 -3 -110 -14 0 -8 -7 -16 -15 -20 -11 -4 -15 -21
-15 -67 0 -83 -8 -88 -136 -89 -97 0 -102 1 -108 23 -3 12 -6 147 -6 299 0
238 2 279 16 292 12 12 37 16 107 16 113 0 127 -10 127 -95 0 -40 4 -57 15
-61 8 -4 15 -12 15 -20 0 -11 23 -14 109 -14 l109 0 7 33 c4 17 13 35 19 40 8
5 8 9 -1 15 -6 4 -15 21 -19 37 -7 29 -13 39 -46 76 -10 10 -18 26 -18 34 0 8
-7 15 -15 15 -8 0 -15 7 -15 15 0 8 -7 15 -15 15 -8 0 -15 7 -15 15 0 10 -11
15 -35 15 -24 0 -35 5 -35 15 0 13 -26 15 -170 15 -144 0 -170 -2 -170 -15z"/>
<path d="M1690 1605 c0 -10 -10 -15 -30 -15 -20 0 -30 -5 -30 -15 0 -8 -9 -15
-20 -15 -14 0 -20 -7 -20 -21 0 -11 -4 -17 -10 -14 -5 3 -10 -1 -10 -9 0 -8
-9 -20 -20 -26 -11 -6 -20 -20 -20 -30 0 -11 -7 -20 -15 -20 -10 0 -15 -11
-15 -35 0 -24 -5 -35 -15 -35 -13 0 -15 -41 -15 -310 0 -269 2 -310 15 -310 8
0 15 -9 15 -20 0 -11 7 -20 15 -20 8 0 15 -4 15 -10 0 -18 140 -12 181 7 l38
18 1 366 0 367 23 6 c12 3 58 6 102 6 44 0 90 -3 103 -6 l22 -6 0 -369 c0
-325 2 -369 15 -369 9 0 18 -7 21 -15 5 -12 25 -15 95 -15 53 0 89 4 89 10 0
6 7 10 15 10 8 0 15 9 15 20 0 11 7 20 15 20 13 0 15 42 15 315 0 273 -2 315
-15 315 -10 0 -15 10 -15 30 0 20 -5 30 -15 30 -8 0 -15 9 -15 20 0 11 -7 23
-15 26 -8 4 -15 15 -15 25 0 10 -7 19 -15 19 -8 0 -15 7 -15 15 0 8 -6 15 -14
15 -8 0 -16 7 -20 15 -3 9 -18 15 -36 15 -20 0 -30 5 -30 15 0 13 -27 15 -185
15 -158 0 -185 -2 -185 -15z"/>
<path d="M2612 1605 c-7 -8 -26 -15 -41 -15 -16 0 -31 -7 -35 -15 -3 -8 -12
-15 -21 -15 -8 0 -15 -9 -15 -20 0 -11 -7 -20 -15 -20 -9 0 -15 -9 -15 -25 0
-16 -6 -25 -15 -25 -8 0 -15 -7 -15 -15 0 -7 -8 -18 -17 -24 -17 -9 -18 -38
-20 -361 -2 -342 -2 -352 17 -357 11 -3 20 -9 20 -14 0 -16 143 -10 164 6 11
8 28 15 38 15 17 0 18 13 18 170 0 144 2 170 15 170 8 0 15 7 15 15 0 12 18
15 100 15 84 0 98 -2 94 -15 -4 -9 0 -15 10 -15 14 0 16 -20 16 -169 l0 -169
25 -6 c14 -4 23 -11 20 -16 -4 -6 28 -10 84 -10 53 0 91 4 91 10 0 5 11 12 25
16 l25 6 0 339 c0 200 -4 339 -9 339 -5 0 -12 13 -16 29 -3 16 -13 32 -21 35
-8 3 -14 12 -14 21 0 8 -7 15 -15 15 -8 0 -15 5 -15 10 0 6 -9 19 -20 30 -11
11 -24 20 -30 20 -5 0 -10 7 -10 15 0 11 -11 15 -40 15 -27 0 -43 5 -46 15 -9
22 -313 21 -332 0z m276 -142 c23 -6 24 -8 20 -102 -4 -130 -14 -141 -133
-141 -69 0 -85 3 -85 15 0 8 -7 15 -15 15 -12 0 -15 17 -15 90 0 123 7 130
120 130 47 0 96 -3 108 -7z"/>
<path d="M3345 1609 c4 -6 -2 -13 -14 -16 -21 -5 -21 -7 -21 -440 0 -426 0
-435 20 -440 11 -3 17 -9 14 -14 -3 -5 103 -9 246 -9 210 0 254 2 266 15 9 8
31 15 50 15 24 0 34 5 34 15 0 8 7 15 15 15 8 0 15 7 15 15 0 8 7 15 15 15 8
0 15 7 15 15 0 8 7 15 15 15 8 0 15 9 15 19 0 10 7 21 15 25 8 3 15 15 15 26
0 11 7 20 15 20 12 0 15 14 15 65 0 37 -4 65 -10 65 -5 0 -10 7 -10 15 0 9 -7
18 -16 22 -13 5 -13 7 -2 14 10 7 9 9 -4 9 -10 0 -18 7 -18 15 0 8 -7 15 -15
15 -10 0 -15 11 -15 35 0 24 5 35 15 35 10 0 15 10 15 30 0 20 5 30 15 30 8 0
15 7 15 15 0 8 7 15 15 15 12 0 15 13 15 59 0 43 -4 60 -15 65 -8 3 -15 17
-15 31 0 16 -6 25 -15 25 -8 0 -15 9 -15 20 0 11 -7 20 -15 20 -8 0 -15 7 -15
15 0 8 -7 15 -15 15 -8 0 -15 7 -15 15 0 8 -7 15 -15 15 -8 0 -15 7 -15 15 0
10 -11 15 -35 15 -24 0 -35 5 -35 15 0 13 -36 15 -266 15 -185 0 -263 -3 -259
-11z m465 -164 c5 -14 7 -62 3 -106 -8 -111 -17 -119 -126 -119 -109 0 -120
11 -125 128 -3 67 -1 82 11 82 8 0 17 9 20 20 5 18 14 20 106 20 99 0 102 -1
111 -25z m-27 -370 c-3 -10 0 -15 8 -13 18 4 30 -89 22 -164 l-6 -58 -108 0
c-87 0 -109 3 -109 14 0 8 -5 16 -12 18 -8 3 -14 32 -16 80 -4 67 -2 78 17 97
12 12 21 26 21 31 0 6 38 10 95 10 81 0 94 -2 88 -15z"/>
<path d="M4250 1605 c0 -8 -7 -15 -15 -15 -12 0 -15 -19 -15 -110 0 -91 3
-110 15 -110 8 0 15 -7 15 -15 0 -11 11 -15 40 -15 27 0 43 5 46 15 4 8 15 15
25 15 10 0 19 7 19 15 0 8 3 14 8 14 27 -5 52 3 52 16 0 8 7 15 15 15 11 0 15
12 15 50 0 28 5 50 10 50 6 0 10 5 10 11 0 5 -4 7 -10 4 -5 -3 -10 3 -10 14 0
28 -11 52 -21 45 -5 -3 -9 0 -9 5 0 7 -35 11 -95 11 -78 0 -95 -3 -95 -15z"/>
<path d="M4820 1605 c0 -10 -11 -15 -35 -15 -24 0 -35 -5 -35 -15 0 -8 -7 -15
-15 -15 -8 0 -15 -7 -15 -15 0 -8 -7 -15 -15 -15 -8 0 -15 -7 -15 -15 0 -9 -7
-18 -15 -21 -8 -4 -15 -12 -15 -20 0 -8 -9 -22 -20 -31 -11 -10 -20 -27 -20
-40 0 -12 -4 -25 -10 -28 -12 -8 -13 -65 -1 -65 5 0 12 -12 15 -26 4 -15 20
-38 37 -53 16 -14 29 -31 29 -38 0 -7 7 -13 15 -13 18 0 15 -42 -3 -48 -7 -2
-12 -10 -12 -18 0 -8 -7 -17 -15 -20 -8 -4 -15 -12 -15 -20 0 -8 -6 -14 -13
-14 -27 0 -47 -93 -47 -218 0 -119 0 -120 25 -126 14 -4 25 -11 25 -16 0 -6
34 -10 79 -10 61 0 80 3 85 15 3 8 9 15 13 14 43 -7 43 -7 43 166 0 138 3 167
15 171 8 4 15 12 15 20 0 11 20 14 95 14 78 0 95 -3 95 -15 0 -8 7 -15 15 -15
13 0 15 -25 17 -157 0 -87 1 -164 1 -170 -1 -7 7 -13 17 -13 10 0 20 -7 24
-15 8 -22 171 -22 180 0 3 8 11 14 18 13 7 -2 14 7 16 20 2 12 8 20 13 17 5
-4 9 152 9 399 0 264 -3 406 -10 406 -5 0 -10 7 -10 15 0 8 -9 15 -20 15 -11
0 -20 7 -20 15 0 13 -36 15 -260 15 -224 0 -260 -2 -260 -15z m278 -141 c21
-6 22 -11 22 -110 0 -86 -3 -104 -15 -104 -8 0 -15 -7 -15 -15 0 -12 -16 -15
-85 -15 -114 0 -129 13 -133 121 -3 61 -1 79 13 92 12 13 13 17 3 18 -7 0 -4
4 7 9 23 10 169 13 203 4z"/>
<path d="M4344 1265 c-4 -8 -14 -15 -24 -15 -10 0 -25 -7 -33 -15 -8 -7 -26
-17 -41 -21 l-26 -6 0 -244 c0 -210 2 -244 15 -244 8 0 15 -7 15 -15 0 -12 17
-15 95 -15 78 0 95 3 95 15 0 8 7 15 15 15 13 0 15 38 15 280 l0 280 -60 0
c-45 0 -62 -4 -66 -15z"/>
</g>
</svg>
